Coordinates
version=1
nRows=12
nColumns=34
inDegrees=yes

Units are S.I. units (second, meters, Newtons, ...)
If the header above contains a line with 'inDegrees', this indicates whether rotational values are in degrees (yes) or radians (no).

endheader
time	pelvis_tilt	pelvis_list	pelvis_rotation	pelvis_tx	pelvis_ty	pelvis_tz	hip_flexion_r	hip_adduction_r	hip_rotation_r	knee_angle_r	ankle_angle_r	subtalar_angle_r	mtp_angle_r	hip_flexion_l	hip_adduction_l	hip_rotation_l	knee_angle_l	ankle_angle_l	subtalar_angle_l	mtp_angle_l	lumbar_extension	lumbar_bending	lumbar_rotation	arm_flex_r	arm_add_r	arm_rot_r	elbow_flex_r	pro_sup_r	arm_flex_l	arm_add_l	arm_rot_l	elbow_flex_l	pro_sup_l
     43.00000000	     -0.74587993	     -2.64237799	    158.11907139	      0.28983942	      1.09235312	     -0.16609620	     21.10988854	     -4.27718035	     -5.07762927	     98.95506918	      0.00000000	      0.00000000	      0.00000000	     18.14383527	     -4.88770541	      3.75687957	     95.01647096	      0.00000000	      0.00000000	      0.00000000	     -6.35756322	     -1.09960492	      3.50735679	      0.00000000	      0.00000000	      0.00000000	      0.00000000	      0.00000000	      0.00000000	      0.00000000	      0.00000000	      0.00000000	      0.00000000
     43.01666670	     -0.75327620	     -2.88080828	    158.07725577	      0.28945711	      1.09208023	     -0.16603993	     21.40814406	     -4.61349364	     -4.91053199	     99.22431215	      0.00000000	      0.00000000	      0.00000000	     18.26549197	     -4.59754764	      3.55642447	     95.09996390	      0.00000000	      0.00000000	      0.00000000	     -6.12088956	     -1.46641622	      2.83175886	      0.00000000	      0.00000000	      0.00000000	      0.00000000	      0.00000000	      0.00000000	      0.00000000	      0.00000000	      0.00000000	      0.00000000
     43.03333330	     -0.78540025	     -2.83165862	    158.11906340	      0.28931355	      1.09202235	     -0.16569789	     21.46651045	     -4.62694485	     -4.90554940	     99.20634476	      0.00000000	      0.00000000	      0.00000000	     18.23225974	     -4.59756863	      3.54608439	     95.09613180	      0.00000000	      0.00000000	      0.00000000	     -6.10296423	     -1.47158884	      2.82860952	      0.00000000	      0.00000000	      0.00000000	      0.00000000	      0.00000000	      0.00000000	      0.00000000	      0.00000000	      0.00000000	      0.00000000
     43.05000000	     -0.82740105	     -2.78573697	    158.14057847	      0.28918878	      1.09215729	     -0.16540340	     21.52396196	     -4.63979128	     -4.90586260	     99.18589909	      0.00000000	      0.00000000	      0.00000000	     18.20178604	     -4.59324864	      3.53551863	     95.09829671	      0.00000000	      0.00000000	      0.00000000	     -6.08061436	     -1.47870613	      2.82420108	      0.00000000	      0.00000000	      0.00000000	      0.00000000	      0.00000000	      0.00000000	      0.00000000	      0.00000000	      0.00000000	      0.00000000
     43.06666670	     -0.88104672	     -2.79535350	    158.07163294	      0.28886996	      1.09234679	     -0.16529662	     21.56168319	     -4.69862802	     -4.85643775	     99.12704053	      0.00000000	      0.00000000	      0.00000000	     18.00986532	     -4.59174911	      3.39069129	     94.91701637	      0.00000000	      0.00000000	      0.00000000	     -5.82404992	     -1.55598507	      2.71808130	      0.00000000	      0.00000000	      0.00000000	      0.00000000	      0.00000000	      0.00000000	      0.00000000	      0.00000000	      0.00000000	      0.00000000
     43.08333330	     -0.92215921	     -2.74920034	    158.07910420	      0.28903000	      1.09256181	     -0.16478079	     21.62352683	     -4.69610352	     -4.85819319	     99.11622299	      0.00000000	      0.00000000	      0.00000000	     17.98931929	     -4.57246960	      3.38074863	     94.91427041	      0.00000000	      0.00000000	      0.00000000	     -5.81747015	     -1.56698848	      2.71329172	      0.00000000	      0.00000000	      0.00000000	      0.00000000	      0.00000000	      0.00000000	      0.00000000	      0.00000000	      0.00000000	      0.00000000
     43.10000000	     -1.01965138	     -2.85666603	    157.83976911	      0.28931645	      1.09276052	     -0.16468761	     21.76942998	     -4.73075999	     -4.54424966	     99.21650641	      0.00000000	      0.00000000	      0.00000000	     17.77984623	     -4.44822146	      3.10362065	     94.74205783	      0.00000000	      0.00000000	      0.00000000	     -5.78519531	     -1.83419404	      2.53592119	      0.00000000	      0.00000000	      0.00000000	      0.00000000	      0.00000000	      0.00000000	      0.00000000	      0.00000000	      0.00000000	      0.00000000
     43.11666670	     -1.03228383	     -2.81999516	    157.84820869	      0.28971715	      1.09279526	     -0.16391039	     21.81113733	     -4.73345783	     -4.54908575	     99.20658882	      0.00000000	      0.00000000	      0.00000000	     17.75591983	     -4.43785617	      3.09618468	     94.71958336	      0.00000000	      0.00000000	      0.00000000	     -5.78146886	     -1.84150941	      2.53463790	      0.00000000	      0.00000000	      0.00000000	      0.00000000	      0.00000000	      0.00000000	      0.00000000	      0.00000000	      0.00000000	      0.00000000
     43.13333330	     -0.98517959	     -2.82033324	    157.79550850	      0.29002908	      1.09319898	     -0.16342057	     21.84544485	     -4.71049404	     -4.54531977	     99.05918549	      0.00000000	      0.00000000	      0.00000000	     17.68759446	     -4.43243110	      3.07287829	     94.46498802	      0.00000000	      0.00000000	      0.00000000	     -5.76405864	     -1.86991096	      2.52901101	      0.00000000	      0.00000000	      0.00000000	      0.00000000	      0.00000000	      0.00000000	      0.00000000	      0.00000000	      0.00000000	      0.00000000
     43.15000000	     -1.02626088	     -2.78387887	    157.66222088	      0.29036933	      1.09369081	     -0.16291929	     21.73861821	     -4.63666429	     -4.35032379	     98.94455208	      0.00000000	      0.00000000	      0.00000000	     17.56397909	     -4.43405301	      2.93457149	     94.33014935	      0.00000000	      0.00000000	      0.00000000	     -5.65351568	     -1.92263997	      2.52686852	      0.00000000	      0.00000000	      0.00000000	      0.00000000	      0.00000000	      0.00000000	      0.00000000	      0.00000000	      0.00000000	      0.00000000
     43.16666670	     -0.99724574	     -2.77959397	    157.67579725	      0.29079062	      1.09401547	     -0.16220806	     21.69040209	     -4.60513619	     -4.26089095	     98.83456563	      0.00000000	      0.00000000	      0.00000000	     17.59066063	     -4.43391211	      2.88750257	     94.15787465	      0.00000000	      0.00000000	      0.00000000	     -5.67891694	     -1.93897928	      2.54044904	      0.00000000	      0.00000000	      0.00000000	      0.00000000	      0.00000000	      0.00000000	      0.00000000	      0.00000000	      0.00000000	      0.00000000
     43.18333330	     -0.94863321	     -2.74411720	    157.59939592	      0.29119342	      1.09436454	     -0.16160526	     21.60253764	     -4.56674629	     -4.13672333	     98.61930521	      0.00000000	      0.00000000	      0.00000000	     17.57814557	     -4.41888084	      2.85272115	     93.97313413	      0.00000000	      0.00000000	      0.00000000	     -5.65794308	     -1.95625155	      2.55796680	      0.00000000	      0.00000000	      0.00000000	      0.00000000	      0.00000000	      0.00000000	      0.00000000	      0.00000000	      0.00000000	      0.00000000
